<?xml version="1.0" encoding="UTF-8"?>
<!-- Generator: Adobe Illustrator 26.0.1, SVG Export Plug-In . SVG Version: 6.00 Build 0)  -->
<svg xmlns="http://www.w3.org/2000/svg" xmlns:xlink="http://www.w3.org/1999/xlink" version="1.1" id="Layer_1" x="0px" y="0px" viewBox="0 0 268.2 82.8" style="enable-background:new 0 0 268.2 82.8;" xml:space="preserve">
<style type="text/css">
	.st0{fill:#3868B2;}
</style>
<g>
	<g>
		<g>
			<circle class="st0" cx="56.2" cy="15.4" r="11.7"></circle>
			<path class="st0" d="M56.2,48.6c-0.4-3.8-1.3-6.3-1.3-6.3s12.8,0.2,18.5,0c5.8-0.2,11.6-1.6,5.2-5.1c-5-2.8-11.9-5.1-19.3-6.9     c3.1,10.5-13.5,11.5-13.5,11.5L41.7,39c0,0,0,0,3.4-3.8c10.8,1.2,10.8-3.6,10.3-5.8c-15.4-3.3-31.7-4.8-36.8-5.2l-2.6-2.4     c-1.3-1.2-3.4-1.2-4.7,0.1l-8.1,8.2c-1.3,1.3-1.3,3.4,0,4.7l12.9,12.9c1.3,1.3,3.5,1.3,4.8,0l8.6-8.7c1.3-1.4,1.3-3.5-0.1-4.8     L21,26.5c30.5,17.1,15.6,44.3,9.9,52.6h11.4c0,0,3.9-11.8,17.3-11.3C76,68.5,83.6,79.1,83.6,79.1s0,0,9.3,0     C87.2,59.1,64.3,51.5,56.2,48.6z"></path>
		</g>
	</g>
	<g>
		<path d="M125,49c-0.6,3.9-2.4,6.8-5.2,8.9c-2.8,2-6.3,3-10.6,3c-4.2,0-7.5-1.1-9.7-3.4c-2.3-2.2-3.1-5.3-2.4-9.2l1.2-7.4    c0.6-3.9,2.4-6.9,5.2-8.9c2.8-2,6.3-3,10.6-3c4.2,0,7.5,1.1,9.7,3.4s3.1,5.3,2.4,9.2L125,49z M117.4,42.3c0.3-1.8,0-3.1-0.7-4.2    c-0.7-1-2-1.5-3.6-1.5c-1.6,0-2.9,0.5-4.1,1.4c-1.1,1-1.8,2.4-2.2,4.2l-0.9,5.5c-0.3,1.8-0.1,3.2,0.7,4.2c0.8,1,2,1.5,3.7,1.5    c1.6,0,3-0.5,4.1-1.4c1.1-1,1.8-2.4,2.1-4.3L117.4,42.3z"></path>
		<path d="M126.2,68.4l4.8-30.1h7.5l-0.3,1.6l2-1c1.2-0.6,2.6-0.9,4.2-0.9c2.5,0,4.3,0.7,5.5,2.2s1.7,3.4,1.3,5.8l-1.2,7.1    c-0.4,2.4-1.4,4.2-3,5.6c-1.6,1.4-3.7,2.1-6.1,2.1c-1.6,0-2.9-0.3-4-0.9l-1.6-1l-1.5,9.5H126.2z M143.5,46.9    c0.1-0.8,0-1.3-0.3-1.7c-0.3-0.4-0.8-0.6-1.5-0.6c-0.6,0-1.3,0.2-2.1,0.7l-2.4,1.2l-1,6l1.9,1.3c0.6,0.4,1.3,0.6,1.9,0.6    c0.7,0,1.2-0.2,1.7-0.6c0.4-0.4,0.7-1,0.8-1.7L143.5,46.9z"></path>
		<path d="M175.6,52.9c-0.4,2.7-1.6,4.7-3.7,6.1c-2.1,1.4-4.7,2.1-7.9,2.1c-2.9,0-5.2-0.8-7-2.4s-2.4-3.9-2-6.9l0.8-5    c0.4-2.8,1.7-5,3.9-6.5c2.1-1.5,4.8-2.3,8-2.3c2.9,0,5.1,0.7,6.7,2c1.6,1.3,2.4,2.9,2.4,4.8c0,2.4-0.8,4.2-2.5,5.4    c-1.6,1.1-3.8,1.7-6.4,1.7h-5.8l0,0.3c-0.2,1,0,1.7,0.4,2.3s1.2,0.8,2.2,0.8c2,0,3.1-0.8,3.4-2.3H175.6z M167,48    c1.7,0,2.5-0.7,2.5-2.1c0-0.6-0.2-1.1-0.7-1.5c-0.4-0.4-1.1-0.6-2-0.6c-1,0-1.9,0.3-2.6,0.9c-0.7,0.6-1.1,1.5-1.3,2.6l-0.1,0.6    H167z"></path>
		<path d="M191.4,60.6l2.3-14.1c0.1-0.6,0-1.1-0.3-1.4c-0.3-0.4-0.7-0.5-1.2-0.5s-1.2,0.2-1.8,0.6l-2.1,1.1L186,60.6h-7.7l3.6-22.3    h7.7l-0.3,1.7l1.8-1c1.2-0.6,2.5-1,4-1c2.4,0,4.1,0.7,5.2,2.1c1.1,1.4,1.5,3.3,1.1,5.7l-2.4,14.8H191.4z"></path>
		<path class="st0" d="M204.4,60.6l1.2-7.3l11.7-9.1c1.4-1.1,2.4-2.2,3-3.1c0.6-1,0.9-2,0.9-3.1c0-1.5-0.8-2.3-2.4-2.3    c-2,0-3.2,1.3-3.6,3.8h-8.1c0.5-3.5,1.9-6.2,4.2-7.9c2.2-1.8,5.1-2.6,8.7-2.6c3,0,5.4,0.7,7.1,2.2c1.7,1.5,2.6,3.5,2.6,6.1    c0,2.3-0.6,4.4-1.8,6.1s-3,3.6-5.5,5.6l-5.3,4.3h10.2l-1.1,7.3H204.4z"></path>
		<path d="M248.4,60.6l-1-9.5l-4,9.5h-8.8l-1.3-22.3h7.9L241,51.5l5.5-13.2h6l1.3,13.2l4.1-13.2h7.9l-8.7,22.3H248.4z"></path>
	</g>
</g>
</svg>
